<svg xmlns="http://www.w3.org/2000/svg" width="111.904" height="114.056" viewBox="0 0 111.904 114.056">
  <g id="Group_49633" data-name="Group 49633" transform="translate(0 0)">
    <g id="Group_49634" data-name="Group 49634" transform="translate(0.99 0)">
      <path id="Path_71738" data-name="Path 71738" d="M75.981,44.108,92.487,27.061s4.864-3.44,9.142,0c1.551,1.627,3.643,4.417,1.551,8.755s-21.542,25.65-21.542,25.65a21.416,21.416,0,0,1-15.264,5.811c-9.843-.076-28.595,0-28.595,0A14.168,14.168,0,0,0,28.1,73.1L6.482,52.246l.3-.855s10.7-20.457,36.228-12.4l26.383.078a7.516,7.516,0,0,1,6.587,7.594c0,3.643-2.79,6.741-5.889,6.9H44.018" transform="translate(6.171 33.294)" fill="none" stroke="#3f4445" stroke-width="1.4"/>
      <path id="Path_71739" data-name="Path 71739" d="M37.722,61.573h0a15.009,15.009,0,0,1-21.222.382L.99,46.993l10.421-10.8Z" transform="translate(-0.99 47.194)" fill="none" stroke="#3f4445" stroke-width="1.4"/>
      <path id="Path_71740" data-name="Path 71740" d="M32.666,10.429A9.989,9.989,0,1,1,22.66,20.4,9.989,9.989,0,0,1,32.666,10.429Z" transform="translate(27.267 13.6)" fill="none" stroke="#3f4445" stroke-width="1.4"/>
      <path id="Path_71741" data-name="Path 71741" d="M58.512,41.328l0-5.785A13.846,13.846,0,0,0,44.7,21.67h0l-12.829-.023A13.848,13.848,0,0,0,17.992,35.469v0l0,6.087" transform="translate(21.177 28.228)" fill="none" stroke="#3f4445" stroke-width="1.4"/>
      <path id="Path_71742" data-name="Path 71742" d="M20.492,11.093a8.537,8.537,0,1,1-8.552,8.522A8.537,8.537,0,0,1,20.492,11.093Z" transform="translate(13.288 14.466)" fill="none" stroke="#3f4445" stroke-width="1.4"/>
      <path id="Path_71743" data-name="Path 71743" d="M30.772,20.7h0l-10.965-.018A11.833,11.833,0,0,0,7.951,32.494v0l0,1.263" transform="translate(8.084 26.969)" fill="none" stroke="#3f4445" stroke-width="1.4"/>
      <path id="Path_71744" data-name="Path 71744" d="M42.779,10.873A8.537,8.537,0,1,0,51.332,19.4,8.537,8.537,0,0,0,42.779,10.873Z" transform="translate(42.389 14.179)" fill="none" stroke="#3f4445" stroke-width="1.4"/>
      <path id="Path_71745" data-name="Path 71745" d="M35.753,20.479h0l10.965-.018A11.833,11.833,0,0,1,58.574,32.273v0l0,1.263" transform="translate(44.34 26.681)" fill="none" stroke="#3f4445" stroke-width="1.4"/>
      <line id="Line_112" data-name="Line 112" y1="14.07" transform="translate(58.999)" fill="none" stroke="#3f4445" stroke-width="1.4"/>
      <line id="Line_113" data-name="Line 113" y1="12.953" x2="5.495" transform="translate(68.569 1.927)" fill="none" stroke="#3f4445" stroke-width="1.4"/>
      <line id="Line_114" data-name="Line 114" x1="7.046" y1="12.179" transform="translate(44.117 3.409)" fill="none" stroke="#3f4445" stroke-width="1.4"/>
    </g>
  </g>
</svg>
