<svg xmlns="http://www.w3.org/2000/svg" width="86.757" height="86.564" viewBox="0 0 86.757 86.564">
  <g id="Group_49455" data-name="Group 49455" transform="translate(1 1)">
    <path id="Path_71624" data-name="Path 71624" d="M43.448,77.355,48.195,82.1l8.928-8.928" transform="translate(-6.005 -9.509)" fill="none" stroke="#b69169" stroke-linejoin="round" stroke-width="2"/>
    <g id="Group_49454" data-name="Group 49454" transform="translate(0 0)">
      <g id="Group_49456" data-name="Group 49456">
        <ellipse id="Ellipse_166" data-name="Ellipse 166" cx="9.988" cy="9.988" rx="9.988" ry="9.988" transform="translate(33.076 21.014)" fill="#abd2d3" stroke="#b69169" stroke-width="2"/>
        <line id="Line_93" data-name="Line 93" y2="22.922" transform="translate(76.713 62.642)" fill="none" stroke="#b69169" stroke-linejoin="round" stroke-width="2"/>
        <line id="Line_94" data-name="Line 94" y2="22.922" transform="translate(8.116 62.642)" fill="none" stroke="#b69169" stroke-linejoin="round" stroke-width="2"/>
        <ellipse id="Ellipse_167" data-name="Ellipse 167" cx="9.988" cy="9.988" rx="9.988" ry="9.988" transform="translate(56.643 21.014)" fill="#d5cbb1" stroke="#b69169" stroke-linejoin="round" stroke-width="2"/>
        <path id="Path_71625" data-name="Path 71625" d="M75.963,52.978h8.705A9.926,9.926,0,0,1,94.6,62.905V82.256H86.471" transform="translate(-9.838 -7.128)" fill="none" stroke="#b69169" stroke-linejoin="round" stroke-width="2"/>
        <ellipse id="Ellipse_168" data-name="Ellipse 168" cx="9.988" cy="9.988" rx="9.988" ry="9.988" transform="translate(8.139 21.014)" fill="#d5cbb1" stroke="#b69169" stroke-linejoin="round" stroke-width="2"/>
        <ellipse id="Ellipse_169" data-name="Ellipse 169" cx="9.988" cy="9.988" rx="9.988" ry="9.988" transform="translate(45.545)" fill="#abd2d3" stroke="#b69169" stroke-linejoin="round" stroke-width="2"/>
        <ellipse id="Ellipse_170" data-name="Ellipse 170" cx="9.988" cy="9.988" rx="9.988" ry="9.988" transform="translate(20.608)" fill="#abd2d3" stroke="#b69169" stroke-linejoin="round" stroke-width="2"/>
        <path id="Path_71626" data-name="Path 71626" d="M20.515,52.978H10.927A9.926,9.926,0,0,0,1,62.905V82.256H9.124" transform="translate(-1 -7.128)" fill="none" stroke="#b69169" stroke-linejoin="round" stroke-width="2"/>
        <path id="Path_71627" data-name="Path 71627" d="M25.839,92.692V62.905a9.926,9.926,0,0,1,9.927-9.927h4.085a7.141,7.141,0,1,0,14.282,0h4.086a9.927,9.927,0,0,1,9.927,9.927V92.692" transform="translate(-3.929 -7.128)" fill="none" stroke="#b69169" stroke-linejoin="round" stroke-width="2"/>
      </g>
    </g>
  </g>
</svg>
