<svg xmlns="http://www.w3.org/2000/svg" width="97.951" height="87.564" viewBox="0 0 97.951 87.564">
  <g id="Group_49458" data-name="Group 49458" transform="translate(1 1)">
    <g id="Group_49459" data-name="Group 49459" transform="translate(0 0)">
      <path id="Path_71628" data-name="Path 71628" d="M67.173,37.523l14.368-14.84s4.235-2.994,7.961,0c1.348,1.417,3.169,3.846,1.348,7.623S72.1,52.633,72.1,52.633a18.644,18.644,0,0,1-13.289,5.059c-8.567-.066-24.891,0-24.891,0a12.331,12.331,0,0,0-8.424,5.069L6.672,44.608l.264-.743s9.311-17.808,31.536-10.794l22.967.068a6.542,6.542,0,0,1,5.734,6.61c0,3.171-2.429,5.869-5.128,6h-22.7" transform="translate(4.343 16.741)" fill="#d5cbb1" stroke="#b69169" stroke-width="2"/>
      <path id="Path_71629" data-name="Path 71629" d="M32.677,55.039h0a13.065,13.065,0,0,1-18.476.332L.7,42.348l9.071-9.4Z" transform="translate(-0.7 26.53)" fill="none" stroke="#b69169" stroke-linejoin="round" stroke-width="2"/>
      <rect id="Rectangle_13399" data-name="Rectangle 13399" width="9.394" height="24.048" transform="translate(26.449 16.264)" fill="none" stroke="#b69169" stroke-width="2"/>
      <rect id="Rectangle_13400" data-name="Rectangle 13400" width="9.394" height="32.128" transform="translate(42.083 8.184)" fill="#d5cbb1" stroke="#b69169" stroke-width="2"/>
      <rect id="Rectangle_13401" data-name="Rectangle 13401" width="9.394" height="40.312" transform="translate(57.203)" fill="#abd2d3" stroke="#b69169" stroke-width="2"/>
    </g>
  </g>
</svg>
