<svg xmlns="http://www.w3.org/2000/svg" width="1366" height="1658" viewBox="0 0 1366 1658">
  <g id="Group_49552" data-name="Group 49552" transform="translate(0 -3180)">
    <rect id="Rectangle_5308" data-name="Rectangle 5308" width="1366" height="1658" transform="translate(0 3180)" fill="#d5f0f0"/>
    <g id="Group_49334" data-name="Group 49334" transform="translate(-0.5 3242.683)">
      <path id="Path_6992" data-name="Path 6992" d="M-6304,68V1725" transform="translate(6443.5 -130.683)" fill="none" stroke="#abd2d3" stroke-width="1"/>
      <path id="Path_6995" data-name="Path 6995" d="M-6304,68V1725" transform="translate(7168.5 -130.683)" fill="none" stroke="#abd2d3" stroke-width="1"/>
      <path id="Path_6993" data-name="Path 6993" d="M-6304,68V1725" transform="translate(6805.5 -130.683)" fill="none" stroke="#abd2d3" stroke-width="1"/>
      <path id="Path_6994" data-name="Path 6994" d="M-6304,68V1725" transform="translate(7531.5 -130.683)" fill="none" stroke="#abd2d3" stroke-width="1"/>
    </g>
    <path id="Path_7028" data-name="Path 7028" d="M-4018,4650.487h1088" transform="translate(4157.5 -1308.487)" fill="none" stroke="#5ca2b0" stroke-width="1"/>
    <path id="Path_71598" data-name="Path 71598" d="M-4018,4650.487h1088" transform="translate(4157.5 -1206.487)" fill="none" stroke="#5ca2b0" stroke-width="1"/>
    <path id="Path_71600" data-name="Path 71600" d="M-4018,4650.487h1088" transform="translate(4157.5 -847.487)" fill="none" stroke="#5ca2b0" stroke-width="1"/>
    <path id="Path_71601" data-name="Path 71601" d="M-4018,4650.487h1088" transform="translate(4157.5 -739.487)" fill="none" stroke="#5ca2b0" stroke-width="1"/>
    <path id="Path_71602" data-name="Path 71602" d="M-4018,4650.487h1088" transform="translate(4157.5 -483.487)" fill="none" stroke="#5ca2b0" stroke-width="1"/>
    <path id="Path_71603" data-name="Path 71603" d="M-4018,4650.487h1088" transform="translate(4157.5 -311.487)" fill="none" stroke="#5ca2b0" stroke-width="1"/>
    <path id="Path_71604" data-name="Path 71604" d="M-4018,4650.487h1088" transform="translate(4157.5 -180.487)" fill="none" stroke="#5ca2b0" stroke-width="1"/>
    <text id="RCC_structure_with_concrete_block_masonry_walls." data-name="RCC structure with concrete/block masonry walls." transform="translate(552 3356)" fill="#434343" font-size="20" font-family="HalyardDisplayBook, Halyard Display" opacity="0.998"><tspan x="0" y="22">RCC structure with concrete/block masonry walls.</tspan></text>
    <text id="Creanza_vitrified_tiles_" data-name="Creanza vitrified tiles " transform="translate(552 3494)" fill="#434343" font-size="20" font-family="HalyardDisplayBook, Halyard Display" opacity="0.998"><tspan x="0" y="22">Creanza vitrified tiles </tspan></text>
    <text id="Creanza_vitrified_flooring_and_skirting." data-name="Creanza vitrified flooring and  skirting." transform="translate(552 3605)" fill="#434343" font-size="20" font-family="HalyardDisplayBook, Halyard Display" opacity="0.998"><tspan x="0" y="22" xml:space="preserve">Creanza vitrified flooring and  skirting.</tspan></text>
    <text id="Creanza_vitrified_flooring_and_skirting.-2" data-name="Creanza vitrified flooring and  skirting." transform="translate(552 3715)" fill="#434343" font-size="20" font-family="HalyardDisplayBook, Halyard Display" opacity="0.998"><tspan x="0" y="22" xml:space="preserve">Creanza vitrified flooring and  skirting.</tspan></text>
    <text id="LIVING_DINING" data-name="LIVING / DINING" transform="translate(518 3480)" fill="#434343" font-size="20" font-family="HalyardDisplayBook, Halyard Display" opacity="0.998"><tspan x="0" y="0">LIVING / DINING</tspan></text>
    <text id="MASTER_BEDROOM" data-name="MASTER BEDROOM" transform="translate(518 3569)" fill="#434343" font-size="20" font-family="HalyardDisplayBook, Halyard Display" opacity="0.998"><tspan x="0" y="22">MASTER BEDROOM</tspan></text>
    <text id="Other_Rooms_Bedrooms" data-name="Other Rooms Bedrooms" transform="translate(518 3679)" fill="#434343" font-size="20" font-family="HalyardDisplayBook, Halyard Display" opacity="0.998"><tspan x="0" y="22">OTHER ROOMS BEDROOMS</tspan></text>
    <text id="Main_Door" data-name="Main Door" transform="translate(518 4506)" fill="#434343" font-size="20" font-family="HalyardDisplayBook, Halyard Display" opacity="0.998"><tspan x="0" y="22">Main Door</tspan></text>
    <text id="Internal_Doors" data-name="Internal Doors" transform="translate(518 4576)" fill="#434343" font-size="20" font-family="HalyardDisplayBook, Halyard Display" opacity="0.998"><tspan x="0" y="22">Internal Doors</tspan></text>
    <text id="Toilet_Doors" data-name="Toilet Doors" transform="translate(518 4646)" fill="#434343" font-size="20" font-family="HalyardDisplayBook, Halyard Display" opacity="0.998"><tspan x="0" y="22">Toilet Doors</tspan></text>
    <text id="Open_surface_parking_on_stilt_floor.Polished_VDF_flooring" data-name="Open surface parking on stilt floor.Polished VDF flooring" transform="translate(552 3392)" fill="#434343" font-size="20" font-family="HalyardDisplayBook, Halyard Display" opacity="0.998"><tspan x="0" y="22">Open surface parking on stilt floor.Polished VDF flooring</tspan></text>
    <text id="Premium_emulsion_paint_for_ceiling_and_walls._" data-name="Premium emulsion paint for ceiling and walls. " transform="translate(552 3528)" fill="#434343" font-size="20" font-family="HalyardDisplayBook, Halyard Display" opacity="0.998"><tspan x="0" y="22">Premium emulsion paint for ceiling and walls. </tspan></text>
    <text id="Premium_emulsion_paint_for_ceiling_and_walls." data-name="Premium emulsion paint for ceiling and walls." transform="translate(552 3639)" fill="#434343" font-size="20" font-family="HalyardDisplayBook, Halyard Display" opacity="0.998"><tspan x="0" y="22">Premium emulsion paint for ceiling and walls.</tspan></text>
    <text id="Premium_emulsion_paint_for_walls_and_ceiling." data-name="Premium emulsion paint for walls and ceiling." transform="translate(552 3749)" fill="#434343" font-size="20" font-family="HalyardDisplayBook, Halyard Display" opacity="0.998"><tspan x="0" y="22">Premium emulsion paint for walls and ceiling.</tspan></text>
    <text id="Creanza_Matt_finish_vitrified_tile_flooring._" data-name="Creanza Matt finish vitrified tile flooring. " transform="translate(552 3819)" fill="#434343" font-size="20" font-family="HalyardDisplayBook, Halyard Display" opacity="0.998"><tspan x="0" y="22">Creanza Matt finish vitrified tile flooring. </tspan></text>
    <text id="Vitrified_tile_flooring." data-name="Vitrified tile flooring." transform="translate(552 3937)" fill="#434343" font-size="20" font-family="HalyardDisplayBook, Halyard Display" opacity="0.998"><tspan x="0" y="22">Vitrified tile flooring.</tspan></text>
    <text id="Matt_finish_Vitrified_tile_flooring_and_skirting._" data-name="Matt finish Vitrified tile flooring and skirting. " transform="translate(552 4183)" fill="#434343" font-size="20" font-family="HalyardDisplayBook, Halyard Display" opacity="0.998"><tspan x="0" y="22">Matt finish Vitrified tile flooring and skirting. </tspan></text>
    <text id="Granite_for_landing_treads_risers_from_basement_to_terrace_floor._" data-name="Granite for landing, treads &amp; risers from basement to terrace floor. " transform="translate(552 4355)" fill="#434343" font-size="20" font-family="HalyardDisplayBook, Halyard Display" opacity="0.998"><tspan x="0" y="22">Granite for landing, treads &amp; risers from basement to terrace floor. </tspan></text>
    <text id="Main_door_Teak_wood_frame_and_Teak_wood_shutter_with_melamine_polish._" data-name="Main door – Teak wood frame and Teak wood shutter with melamine polish. " transform="translate(552 4542)" fill="#434343" font-size="20" font-family="HalyardDisplayBook, Halyard Display" opacity="0.998"><tspan x="0" y="22">Main door – Teak wood frame and Teak wood shutter with melamine polish. </tspan></text>
    <text id="Hard_wood_frame_with_both_side_Masonite_skin_shutter_with_paint._" data-name="Hard wood frame with both side Masonite skin shutter with paint. " transform="translate(552 4612)" fill="#434343" font-size="20" font-family="HalyardDisplayBook, Halyard Display" opacity="0.998"><tspan x="0" y="22">Hard wood frame with both side Masonite skin shutter with paint. </tspan></text>
    <text id="Hard_wood_frame_with_Masonite_skin_shutter_on_the_external_side_and_laminated_on_the_internal_side._" data-name="Hard wood frame with Masonite skin shutter on the external side and laminated on the internal side. " transform="translate(552 4682)" fill="#434343" font-size="20" font-family="HalyardDisplayBook, Halyard Display" opacity="0.998"><tspan x="0" y="22">Hard wood frame with Masonite skin shutter on the external </tspan><tspan x="0" y="46">side and laminated on the internal side. </tspan></text>
    <text id="UPVC_glazed_sliding_windows._" data-name="UPVC glazed sliding windows. " transform="translate(552 4742)" fill="#434343" font-size="20" font-family="HalyardDisplayBook, Halyard Display" opacity="0.998"><tspan x="0" y="22">UPVC glazed sliding windows. </tspan></text>
    <text id="Vitrified_wall_tiling_upto_7_ft_level._" data-name="Vitrified wall tiling upto 7 ft level. " transform="translate(552 3853)" fill="#434343" font-size="20" font-family="HalyardDisplayBook, Halyard Display" opacity="0.998"><tspan x="0" y="22">Vitrified wall tiling upto 7 ft level. </tspan></text>
    <text id="Ceramic_wall_tiling_2_ft_above_counter_level._" data-name="Ceramic wall tiling 2 ft above counter level. " transform="translate(552 3971)" fill="#434343" font-size="20" font-family="HalyardDisplayBook, Halyard Display" opacity="0.998"><tspan x="0" y="22">Ceramic wall tiling 2 ft above counter level. </tspan></text>
    <text id="Glass_with_MS_hand_rails._" data-name="Glass with MS hand rails. " transform="translate(552 4217)" fill="#434343" font-size="20" font-family="HalyardDisplayBook, Halyard Display" opacity="0.998"><tspan x="0" y="22">Glass with MS hand rails. </tspan></text>
    <text id="Premium_emulsion_for_ceiling_and_walls." data-name="Premium emulsion for ceiling and walls." transform="translate(552 4389)" fill="#434343" font-size="20" font-family="HalyardDisplayBook, Halyard Display" opacity="0.998"><tspan x="0" y="22">Premium emulsion for ceiling and walls.</tspan></text>
    <text id="Premium_emulsion_paint_for_ceiling_and_walls.-2" data-name="Premium emulsion paint for ceiling and walls." transform="translate(552 4005)" fill="#434343" font-size="20" font-family="HalyardDisplayBook, Halyard Display" opacity="0.998"><tspan x="0" y="22">Premium emulsion paint for ceiling and walls.</tspan></text>
    <text id="Cement_based_paint_for_ceiling._" data-name="Cement based paint for ceiling. " transform="translate(552 4251)" fill="#434343" font-size="20" font-family="HalyardDisplayBook, Halyard Display" opacity="0.998"><tspan x="0" y="22">Cement based paint for ceiling. </tspan></text>
    <text id="Glass_with_MS_hand_rails._2" data-name="Glass with MS hand rails. " transform="translate(552 4423)" fill="#434343" font-size="20" font-family="HalyardDisplayBook, Halyard Display" opacity="0.998"><tspan x="0" y="22">Glass with MS hand rails. </tspan></text>
    <text id="Provision_for_exhaust." data-name="Provision for exhaust." transform="translate(552 4073)" fill="#434343" font-size="20" font-family="HalyardDisplayBook, Halyard Display" opacity="0.998"><tspan x="0" y="22">Provision for exhaust.</tspan></text>
    <text id="One_stainless-steel_single_bowl_sink." data-name="One stainless-steel single bowl sink." transform="translate(552 4107)" fill="#434343" font-size="20" font-family="HalyardDisplayBook, Halyard Display" opacity="0.998"><tspan x="0" y="22">One stainless-steel single bowl sink.</tspan></text>
    <text id="_2_feet_wide_19_mm_thick_granite_counter_and_SS_Sink_with_drain_board." data-name="2 feet wide 19 mm thick granite counter and SS Sink with drain board." transform="translate(552 4039)" fill="#434343" font-size="20" font-family="HalyardDisplayBook, Halyard Display" opacity="0.998"><tspan x="0" y="22">2 feet wide 19 mm thick granite counter and SS Sink with drain board.</tspan></text>
    <text id="Premium_exterior_emulsion_for_walls." data-name="Premium exterior  emulsion for walls." transform="translate(552 4285)" fill="#434343" font-size="20" font-family="HalyardDisplayBook, Halyard Display" opacity="0.998"><tspan x="0" y="22" xml:space="preserve">Premium exterior  emulsion for walls.</tspan></text>
    <text id="Specifications" transform="translate(231 3218)" fill="#1d1d1d" font-size="64" font-family="HalyardDisplayBook, Halyard Display"><tspan x="0" y="69">Specifications</tspan></text>
    <text id="Structure" transform="translate(159 3378)" fill="#1d1d1d" font-size="24" font-family="HalyardDisplay-Regular, Halyard Display"><tspan x="0" y="0">Structure</tspan></text>
    <text id="Finishes" transform="translate(159 3482)" fill="#1d1d1d" font-size="24" font-family="HalyardDisplay-Regular, Halyard Display"><tspan x="0" y="0">Finishes</tspan></text>
    <text id="Toilets" transform="translate(159 3841)" fill="#1d1d1d" font-size="24" font-family="HalyardDisplay-Regular, Halyard Display"><tspan x="0" y="0">Toilets</tspan></text>
    <text id="Kitchen" transform="translate(159 3963)" fill="#1d1d1d" font-size="24" font-family="HalyardDisplay-Regular, Halyard Display"><tspan x="0" y="0">Kitchen</tspan></text>
    <text id="Balconies_Utilities" data-name="Balconies/Utilities" transform="translate(159 4205)" fill="#1d1d1d" font-size="24" font-family="HalyardDisplay-Regular, Halyard Display"><tspan x="0" y="0">Balconies/Utilities</tspan></text>
    <text id="Common_areas_and_Staircase" data-name="Common  areas and Staircase" transform="translate(159 4381)" fill="#1d1d1d" font-size="24" font-family="HalyardDisplay-Regular, Halyard Display"><tspan x="0" y="0" xml:space="preserve">Common  areas and Staircase</tspan></text>
    <text id="Joinery" transform="translate(159 4528)" fill="#1d1d1d" font-size="24" font-family="HalyardDisplay-Regular, Halyard Display"><tspan x="0" y="0">JOINERY</tspan></text>
    <g id="Group_49408" data-name="Group 49408" transform="translate(287 -412)">
      <g id="Ellipse_146" data-name="Ellipse 146" transform="translate(231 3772)" fill="#fff" stroke="#707070" stroke-width="1">
        <circle cx="10" cy="10" r="10" stroke="none"/>
        <circle cx="10" cy="10" r="9.5" fill="none"/>
      </g>
      <path id="Path_71599" data-name="Path 71599" d="M-1933.487,3834.076l4.664,3.692,5.231-6.862" transform="translate(2169.54 -52.337)" fill="none" stroke="#707070" stroke-width="1"/>
    </g>
    <g id="Group_49410" data-name="Group 49410" transform="translate(287 -274)">
      <g id="Ellipse_146-2" data-name="Ellipse 146" transform="translate(231 3772)" fill="#fff" stroke="#707070" stroke-width="1">
        <circle cx="10" cy="10" r="10" stroke="none"/>
        <circle cx="10" cy="10" r="9.5" fill="none"/>
      </g>
      <path id="Path_71599-2" data-name="Path 71599" d="M-1933.487,3834.076l4.664,3.692,5.231-6.862" transform="translate(2169.54 -52.337)" fill="none" stroke="#707070" stroke-width="1"/>
    </g>
    <g id="Group_49412" data-name="Group 49412" transform="translate(287 -163)">
      <g id="Ellipse_146-3" data-name="Ellipse 146" transform="translate(231 3772)" fill="#fff" stroke="#707070" stroke-width="1">
        <circle cx="10" cy="10" r="10" stroke="none"/>
        <circle cx="10" cy="10" r="9.5" fill="none"/>
      </g>
      <path id="Path_71599-3" data-name="Path 71599" d="M-1933.487,3834.076l4.664,3.692,5.231-6.862" transform="translate(2169.54 -52.337)" fill="none" stroke="#707070" stroke-width="1"/>
    </g>
    <g id="Group_49415" data-name="Group 49415" transform="translate(287 -53)">
      <g id="Ellipse_146-4" data-name="Ellipse 146" transform="translate(231 3772)" fill="#fff" stroke="#707070" stroke-width="1">
        <circle cx="10" cy="10" r="10" stroke="none"/>
        <circle cx="10" cy="10" r="9.5" fill="none"/>
      </g>
      <path id="Path_71599-4" data-name="Path 71599" d="M-1933.487,3834.076l4.664,3.692,5.231-6.862" transform="translate(2169.54 -52.337)" fill="none" stroke="#707070" stroke-width="1"/>
    </g>
    <g id="Group_49409" data-name="Group 49409" transform="translate(287 -376)">
      <g id="Ellipse_146-5" data-name="Ellipse 146" transform="translate(231 3772)" fill="#fff" stroke="#707070" stroke-width="1">
        <circle cx="10" cy="10" r="10" stroke="none"/>
        <circle cx="10" cy="10" r="9.5" fill="none"/>
      </g>
      <path id="Path_71599-5" data-name="Path 71599" d="M-1933.487,3834.076l4.664,3.692,5.231-6.862" transform="translate(2169.54 -52.337)" fill="none" stroke="#707070" stroke-width="1"/>
    </g>
    <g id="Group_49411" data-name="Group 49411" transform="translate(287 -240)">
      <g id="Ellipse_146-6" data-name="Ellipse 146" transform="translate(231 3772)" fill="#fff" stroke="#707070" stroke-width="1">
        <circle cx="10" cy="10" r="10" stroke="none"/>
        <circle cx="10" cy="10" r="9.5" fill="none"/>
      </g>
      <path id="Path_71599-6" data-name="Path 71599" d="M-1933.487,3834.076l4.664,3.692,5.231-6.862" transform="translate(2169.54 -52.337)" fill="none" stroke="#707070" stroke-width="1"/>
    </g>
    <g id="Group_49413" data-name="Group 49413" transform="translate(287 -129)">
      <g id="Ellipse_146-7" data-name="Ellipse 146" transform="translate(231 3772)" fill="#fff" stroke="#707070" stroke-width="1">
        <circle cx="10" cy="10" r="10" stroke="none"/>
        <circle cx="10" cy="10" r="9.5" fill="none"/>
      </g>
      <path id="Path_71599-7" data-name="Path 71599" d="M-1933.487,3834.076l4.664,3.692,5.231-6.862" transform="translate(2169.54 -52.337)" fill="none" stroke="#707070" stroke-width="1"/>
    </g>
    <g id="Group_49414" data-name="Group 49414" transform="translate(287 -19)">
      <g id="Ellipse_146-8" data-name="Ellipse 146" transform="translate(231 3772)" fill="#fff" stroke="#707070" stroke-width="1">
        <circle cx="10" cy="10" r="10" stroke="none"/>
        <circle cx="10" cy="10" r="9.5" fill="none"/>
      </g>
      <path id="Path_71599-8" data-name="Path 71599" d="M-1933.487,3834.076l4.664,3.692,5.231-6.862" transform="translate(2169.54 -52.337)" fill="none" stroke="#707070" stroke-width="1"/>
    </g>
    <g id="Group_49416" data-name="Group 49416" transform="translate(287 51)">
      <g id="Ellipse_146-9" data-name="Ellipse 146" transform="translate(231 3772)" fill="#fff" stroke="#707070" stroke-width="1">
        <circle cx="10" cy="10" r="10" stroke="none"/>
        <circle cx="10" cy="10" r="9.5" fill="none"/>
      </g>
      <path id="Path_71599-9" data-name="Path 71599" d="M-1933.487,3834.076l4.664,3.692,5.231-6.862" transform="translate(2169.54 -52.337)" fill="none" stroke="#707070" stroke-width="1"/>
    </g>
    <g id="Group_49419" data-name="Group 49419" transform="translate(287 169)">
      <g id="Ellipse_146-10" data-name="Ellipse 146" transform="translate(231 3772)" fill="#fff" stroke="#707070" stroke-width="1">
        <circle cx="10" cy="10" r="10" stroke="none"/>
        <circle cx="10" cy="10" r="9.5" fill="none"/>
      </g>
      <path id="Path_71599-10" data-name="Path 71599" d="M-1933.487,3834.076l4.664,3.692,5.231-6.862" transform="translate(2169.54 -52.337)" fill="none" stroke="#707070" stroke-width="1"/>
    </g>
    <g id="Group_49424" data-name="Group 49424" transform="translate(287 415)">
      <g id="Ellipse_146-11" data-name="Ellipse 146" transform="translate(231 3772)" fill="#fff" stroke="#707070" stroke-width="1">
        <circle cx="10" cy="10" r="10" stroke="none"/>
        <circle cx="10" cy="10" r="9.5" fill="none"/>
      </g>
      <path id="Path_71599-11" data-name="Path 71599" d="M-1933.487,3834.076l4.664,3.692,5.231-6.862" transform="translate(2169.54 -52.337)" fill="none" stroke="#707070" stroke-width="1"/>
    </g>
    <g id="Group_49428" data-name="Group 49428" transform="translate(287 587)">
      <g id="Ellipse_146-12" data-name="Ellipse 146" transform="translate(231 3772)" fill="#fff" stroke="#707070" stroke-width="1">
        <circle cx="10" cy="10" r="10" stroke="none"/>
        <circle cx="10" cy="10" r="9.5" fill="none"/>
      </g>
      <path id="Path_71599-12" data-name="Path 71599" d="M-1933.487,3834.076l4.664,3.692,5.231-6.862" transform="translate(2169.54 -52.337)" fill="none" stroke="#707070" stroke-width="1"/>
    </g>
    <g id="Group_49435" data-name="Group 49435" transform="translate(287 774)">
      <g id="Ellipse_146-13" data-name="Ellipse 146" transform="translate(231 3772)" fill="#fff" stroke="#707070" stroke-width="1">
        <circle cx="10" cy="10" r="10" stroke="none"/>
        <circle cx="10" cy="10" r="9.5" fill="none"/>
      </g>
      <path id="Path_71599-13" data-name="Path 71599" d="M-1933.487,3834.076l4.664,3.692,5.231-6.862" transform="translate(2169.54 -52.337)" fill="none" stroke="#707070" stroke-width="1"/>
    </g>
    <g id="Group_49436" data-name="Group 49436" transform="translate(287 844)">
      <g id="Ellipse_146-14" data-name="Ellipse 146" transform="translate(231 3772)" fill="#fff" stroke="#707070" stroke-width="1">
        <circle cx="10" cy="10" r="10" stroke="none"/>
        <circle cx="10" cy="10" r="9.5" fill="none"/>
      </g>
      <path id="Path_71599-14" data-name="Path 71599" d="M-1933.487,3834.076l4.664,3.692,5.231-6.862" transform="translate(2169.54 -52.337)" fill="none" stroke="#707070" stroke-width="1"/>
    </g>
    <g id="Group_49437" data-name="Group 49437" transform="translate(287 914)">
      <g id="Ellipse_146-15" data-name="Ellipse 146" transform="translate(231 3772)" fill="#fff" stroke="#707070" stroke-width="1">
        <circle cx="10" cy="10" r="10" stroke="none"/>
        <circle cx="10" cy="10" r="9.5" fill="none"/>
      </g>
      <path id="Path_71599-15" data-name="Path 71599" d="M-1933.487,3834.076l4.664,3.692,5.231-6.862" transform="translate(2169.54 -52.337)" fill="none" stroke="#707070" stroke-width="1"/>
    </g>
    <g id="Group_49438" data-name="Group 49438" transform="translate(287 974)">
      <g id="Ellipse_146-16" data-name="Ellipse 146" transform="translate(231 3772)" fill="#fff" stroke="#707070" stroke-width="1">
        <circle cx="10" cy="10" r="10" stroke="none"/>
        <circle cx="10" cy="10" r="9.5" fill="none"/>
      </g>
      <path id="Path_71599-16" data-name="Path 71599" d="M-1933.487,3834.076l4.664,3.692,5.231-6.862" transform="translate(2169.54 -52.337)" fill="none" stroke="#707070" stroke-width="1"/>
    </g>
    <g id="Group_49417" data-name="Group 49417" transform="translate(287 85)">
      <g id="Ellipse_146-17" data-name="Ellipse 146" transform="translate(231 3772)" fill="#fff" stroke="#707070" stroke-width="1">
        <circle cx="10" cy="10" r="10" stroke="none"/>
        <circle cx="10" cy="10" r="9.5" fill="none"/>
      </g>
      <path id="Path_71599-17" data-name="Path 71599" d="M-1933.487,3834.076l4.664,3.692,5.231-6.862" transform="translate(2169.54 -52.337)" fill="none" stroke="#707070" stroke-width="1"/>
    </g>
    <g id="Group_49420" data-name="Group 49420" transform="translate(287 203)">
      <g id="Ellipse_146-18" data-name="Ellipse 146" transform="translate(231 3772)" fill="#fff" stroke="#707070" stroke-width="1">
        <circle cx="10" cy="10" r="10" stroke="none"/>
        <circle cx="10" cy="10" r="9.5" fill="none"/>
      </g>
      <path id="Path_71599-18" data-name="Path 71599" d="M-1933.487,3834.076l4.664,3.692,5.231-6.862" transform="translate(2169.54 -52.337)" fill="none" stroke="#707070" stroke-width="1"/>
    </g>
    <g id="Group_49425" data-name="Group 49425" transform="translate(287 449)">
      <g id="Ellipse_146-19" data-name="Ellipse 146" transform="translate(231 3772)" fill="#fff" stroke="#707070" stroke-width="1">
        <circle cx="10" cy="10" r="10" stroke="none"/>
        <circle cx="10" cy="10" r="9.5" fill="none"/>
      </g>
      <path id="Path_71599-19" data-name="Path 71599" d="M-1933.487,3834.076l4.664,3.692,5.231-6.862" transform="translate(2169.54 -52.337)" fill="none" stroke="#707070" stroke-width="1"/>
    </g>
    <g id="Group_49429" data-name="Group 49429" transform="translate(287 621)">
      <g id="Ellipse_146-20" data-name="Ellipse 146" transform="translate(231 3772)" fill="#fff" stroke="#707070" stroke-width="1">
        <circle cx="10" cy="10" r="10" stroke="none"/>
        <circle cx="10" cy="10" r="9.5" fill="none"/>
      </g>
      <path id="Path_71599-20" data-name="Path 71599" d="M-1933.487,3834.076l4.664,3.692,5.231-6.862" transform="translate(2169.54 -52.337)" fill="none" stroke="#707070" stroke-width="1"/>
    </g>
    <g id="Group_49421" data-name="Group 49421" transform="translate(287 237)">
      <g id="Ellipse_146-21" data-name="Ellipse 146" transform="translate(231 3772)" fill="#fff" stroke="#707070" stroke-width="1">
        <circle cx="10" cy="10" r="10" stroke="none"/>
        <circle cx="10" cy="10" r="9.5" fill="none"/>
      </g>
      <path id="Path_71599-21" data-name="Path 71599" d="M-1933.487,3834.076l4.664,3.692,5.231-6.862" transform="translate(2169.54 -52.337)" fill="none" stroke="#707070" stroke-width="1"/>
    </g>
    <g id="Group_49426" data-name="Group 49426" transform="translate(287 483)">
      <g id="Ellipse_146-22" data-name="Ellipse 146" transform="translate(231 3772)" fill="#fff" stroke="#707070" stroke-width="1">
        <circle cx="10" cy="10" r="10" stroke="none"/>
        <circle cx="10" cy="10" r="9.5" fill="none"/>
      </g>
      <path id="Path_71599-22" data-name="Path 71599" d="M-1933.487,3834.076l4.664,3.692,5.231-6.862" transform="translate(2169.54 -52.337)" fill="none" stroke="#707070" stroke-width="1"/>
    </g>
    <g id="Group_49430" data-name="Group 49430" transform="translate(287 655)">
      <g id="Ellipse_146-23" data-name="Ellipse 146" transform="translate(231 3772)" fill="#fff" stroke="#707070" stroke-width="1">
        <circle cx="10" cy="10" r="10" stroke="none"/>
        <circle cx="10" cy="10" r="9.5" fill="none"/>
      </g>
      <path id="Path_71599-23" data-name="Path 71599" d="M-1933.487,3834.076l4.664,3.692,5.231-6.862" transform="translate(2169.54 -52.337)" fill="none" stroke="#707070" stroke-width="1"/>
    </g>
    <g id="Group_49423" data-name="Group 49423" transform="translate(287 305)">
      <g id="Ellipse_146-24" data-name="Ellipse 146" transform="translate(231 3772)" fill="#fff" stroke="#707070" stroke-width="1">
        <circle cx="10" cy="10" r="10" stroke="none"/>
        <circle cx="10" cy="10" r="9.5" fill="none"/>
      </g>
      <path id="Path_71599-24" data-name="Path 71599" d="M-1933.487,3834.076l4.664,3.692,5.231-6.862" transform="translate(2169.54 -52.337)" fill="none" stroke="#707070" stroke-width="1"/>
    </g>
    <g id="Group_49449" data-name="Group 49449" transform="translate(287 339)">
      <g id="Ellipse_146-25" data-name="Ellipse 146" transform="translate(231 3772)" fill="#fff" stroke="#707070" stroke-width="1">
        <circle cx="10" cy="10" r="10" stroke="none"/>
        <circle cx="10" cy="10" r="9.5" fill="none"/>
      </g>
      <path id="Path_71599-25" data-name="Path 71599" d="M-1933.487,3834.076l4.664,3.692,5.231-6.862" transform="translate(2169.54 -52.337)" fill="none" stroke="#707070" stroke-width="1"/>
    </g>
    <g id="Group_49422" data-name="Group 49422" transform="translate(287 271)">
      <g id="Ellipse_146-26" data-name="Ellipse 146" transform="translate(231 3772)" fill="#fff" stroke="#707070" stroke-width="1">
        <circle cx="10" cy="10" r="10" stroke="none"/>
        <circle cx="10" cy="10" r="9.5" fill="none"/>
      </g>
      <path id="Path_71599-26" data-name="Path 71599" d="M-1933.487,3834.076l4.664,3.692,5.231-6.862" transform="translate(2169.54 -52.337)" fill="none" stroke="#707070" stroke-width="1"/>
    </g>
    <g id="Group_49427" data-name="Group 49427" transform="translate(287 517)">
      <g id="Ellipse_146-27" data-name="Ellipse 146" transform="translate(231 3772)" fill="#fff" stroke="#707070" stroke-width="1">
        <circle cx="10" cy="10" r="10" stroke="none"/>
        <circle cx="10" cy="10" r="9.5" fill="none"/>
      </g>
      <path id="Path_71599-27" data-name="Path 71599" d="M-1933.487,3834.076l4.664,3.692,5.231-6.862" transform="translate(2169.54 -52.337)" fill="none" stroke="#707070" stroke-width="1"/>
    </g>
  </g>
</svg>
