<svg id="Group_50084" data-name="Group 50084" xmlns="http://www.w3.org/2000/svg" xmlns:xlink="http://www.w3.org/1999/xlink" width="60" height="59.067" viewBox="0 0 60 59.067">
  <defs>
    <clipPath id="clip-path">
      <rect id="Rectangle_14394" data-name="Rectangle 14394" width="60" height="59.067" fill="#abd2d3"/>
    </clipPath>
  </defs>
  <g id="Group_50083" data-name="Group 50083" clip-path="url(#clip-path)">
    <path id="Path_74398" data-name="Path 74398" d="M.035,47.715a12.256,12.256,0,0,1,1.238-3.385A10.388,10.388,0,0,1,6.7,39.816,7.593,7.593,0,0,1,8.264,26.863a10.4,10.4,0,0,1,1.777-.564h4.974V14.888L4.28,10.527l-.149-.259L29.955,0,55.976,10.267l-7.606,3.16,2.169.93.049,4.023A3.461,3.461,0,0,1,52.9,22.35c-.12.708-.709,1.215-.9,1.882l1.632,9.556H50.592V35.72a10.859,10.859,0,0,0,.939.583,3,3,0,0,1,.817,3.1h5.559a3.581,3.581,0,0,1,1.46,1,2.931,2.931,0,0,1-.472,4.085c-.308.23-.839.234-.819.7l.006,8.2c.063.333.634.452.939.7a2.948,2.948,0,0,1-1.056,4.976H8.461A10.171,10.171,0,0,1,.035,50.641c.08-.928-.109-2.021,0-2.926M50.592,10.267,30.033,2.1c-6.6,2.755-13.39,5.127-19.959,7.961-.165.071-.748.175-.677.376l20.639,8.218,12.716-5L29.652,8.5l.578-1.863,15.319,5.8a50.589,50.589,0,0,0,4.894-1.907c.1-.058.317-.087.149-.259m-5.617,4.621V26.3h1.99c-.036-.632.384-1.587.347-2.16-.022-.338-.756-1.1-.88-1.7a3.356,3.356,0,0,1,2.27-4l0-2.6-.178-.173c-.592-.051-3.282-1.608-3.551-.78m-1.873.761L29.954,20.765,16.887,15.532V26.825a13.817,13.817,0,0,0,5.762,3.132c5.521,1.613,14.082,1.377,18.968-1.925A10.551,10.551,0,0,0,43.1,26.825Zm7.914,5.966a1.36,1.36,0,1,0-1.36,1.36,1.36,1.36,0,0,0,1.36-1.36m-3,10.3h3.277c-.254-.81-.9-6.949-1.248-7.027a3.653,3.653,0,0,0-.843.021ZM17.706,30.044,15.4,28.2c-1.308.018-2.649-.109-3.954-.023-7.926.523-7.407,11.146.227,11.239,12.73-.064,25.48.1,38.2-.083,1.181-.485.695-1.83-.5-1.8L10.42,37.506a3.829,3.829,0,0,1-1.3-6.858,7.759,7.759,0,0,1,1.268-.6Zm28.907-1.873H44.565l-2.282,1.873h4.1Zm-35.4,7.49H48.72V33.789H45.677l.351-1.872H37.778a31.331,31.331,0,0,1-15.567,0c-3.461.2-7.23-.274-10.653-.005-2.867.225-2.642,3.469-.347,3.749M9.724,41.313C-.62,42.037-.691,56.6,10.036,57.2H56.858c1.579-.04,1.561-1.849,0-1.882L8.766,55.31a6.151,6.151,0,0,1,0-12.147l48.092-.008c1.666-.068,1.508-1.954-.117-1.882ZM56.21,45.024H9.573c-5.26,0-5.26,8.426,0,8.426H56.21V48.769H39.357V46.9H56.21Z" transform="translate(0)" fill="#abd2d3"/>
    <rect id="Rectangle_14393" data-name="Rectangle 14393" width="26.215" height="1.873" transform="translate(9.397 49.705)" fill="#abd2d3"/>
  </g>
</svg>
