<svg id="Group_50082" data-name="Group 50082" xmlns="http://www.w3.org/2000/svg" xmlns:xlink="http://www.w3.org/1999/xlink" width="60" height="60.079" viewBox="0 0 60 60.079">
  <defs>
    <clipPath id="clip-path">
      <rect id="Rectangle_14392" data-name="Rectangle 14392" width="60" height="60.079" fill="#abd2d3"/>
    </clipPath>
  </defs>
  <g id="Group_50081" data-name="Group 50081" clip-path="url(#clip-path)">
    <path id="Path_74381" data-name="Path 74381" d="M45.971,18.032H59.419c.051,0,.67.606.569.807l-.072,40.723c-.234.278-.457.563-.865.511L.438,60,0,59.562V18.535a6.546,6.546,0,0,1,.5-.5H13.946V.581a6.546,6.546,0,0,1,.5-.5L45.165.011c.2-.1.807.518.807.569Zm-2-16.013H15.948V58.064h9.007V48.056h-2v-2H36.964v2h-2V58.064H43.97ZM13.946,20.034H1.937v38.03H13.946Zm44.035,0H45.971v38.03H57.981ZM32.961,48.056h-6V58.063h6Z" transform="translate(0 0)" fill="#abd2d3"/>
    <path id="Path_74382" data-name="Path 74382" d="M192.559,35.51H196c.252,0,.546.683.571.931a30.341,30.341,0,0,1-.01,4.383,1.862,1.862,0,0,1-.56.691h-3.44v3.44a1.863,1.863,0,0,1-.691.56,30.359,30.359,0,0,1-4.383.01c-.248-.025-.931-.319-.931-.571v-3.44h-3.44c-.252,0-.546-.683-.571-.931a30.36,30.36,0,0,1,.01-4.383,1.862,1.862,0,0,1,.56-.691h3.44v-3.44a1.864,1.864,0,0,1,.691-.56,30.359,30.359,0,0,1,4.383-.01c.248.025.931.319.931.571Zm-2-2h-2v3.44a3.754,3.754,0,0,1-.563.563h-3.44v2h3.44a3.759,3.759,0,0,1,.563.563v3.44h2v-3.44a3.765,3.765,0,0,1,.563-.563h3.44v-2h-3.44a3.76,3.76,0,0,1-.563-.563Z" transform="translate(-159.598 -27.486)" fill="#abd2d3"/>
    <path id="Path_74383" data-name="Path 74383" d="M143.232,159.4c1.422.1,3.236-.216,4.609-.032a.944.944,0,0,1,.813.813,38.2,38.2,0,0,1-.072,4.695,1.066,1.066,0,0,1-.741.51,38.224,38.224,0,0,1-4.695-.072,1.065,1.065,0,0,1-.51-.741,32.544,32.544,0,0,1,.009-4.507,1.2,1.2,0,0,1,.586-.665m1.413,3.977h2v-2h-2Z" transform="translate(-124.694 -139.338)" fill="#abd2d3"/>
    <path id="Path_74384" data-name="Path 74384" d="M215.092,159.4c1.422.1,3.236-.216,4.609-.032a.945.945,0,0,1,.813.813,38.2,38.2,0,0,1-.072,4.695,1.066,1.066,0,0,1-.741.51,38.226,38.226,0,0,1-4.7-.072,1.066,1.066,0,0,1-.51-.741,32.549,32.549,0,0,1,.009-4.507,1.2,1.2,0,0,1,.586-.665m1.413,3.977h2v-2h-2Z" transform="translate(-187.547 -139.338)" fill="#abd2d3"/>
    <path id="Path_74385" data-name="Path 74385" d="M286.951,159.4c1.422.1,3.236-.216,4.609-.032a.945.945,0,0,1,.813.813,38.2,38.2,0,0,1-.072,4.695,1.066,1.066,0,0,1-.741.51,38.224,38.224,0,0,1-4.695-.072,1.066,1.066,0,0,1-.51-.741,32.565,32.565,0,0,1,.009-4.507,1.2,1.2,0,0,1,.586-.665m1.413,3.977h2v-2h-2Z" transform="translate(-250.399 -139.338)" fill="#abd2d3"/>
    <path id="Path_74386" data-name="Path 74386" d="M143.232,223.272c1.422.1,3.236-.216,4.609-.032a.945.945,0,0,1,.813.813,38.2,38.2,0,0,1-.072,4.695,1.066,1.066,0,0,1-.741.51,38.2,38.2,0,0,1-4.695-.072,1.065,1.065,0,0,1-.51-.741,32.544,32.544,0,0,1,.009-4.507,1.2,1.2,0,0,1,.586-.665m1.413,3.977h2v-2h-2Z" transform="translate(-124.694 -195.207)" fill="#abd2d3"/>
    <path id="Path_74387" data-name="Path 74387" d="M215.092,223.272c1.422.1,3.236-.216,4.609-.032a.945.945,0,0,1,.813.813,38.2,38.2,0,0,1-.072,4.695,1.066,1.066,0,0,1-.741.51,38.2,38.2,0,0,1-4.7-.072,1.066,1.066,0,0,1-.51-.741,32.549,32.549,0,0,1,.009-4.507,1.2,1.2,0,0,1,.586-.665m1.413,3.977h2v-2h-2Z" transform="translate(-187.547 -195.207)" fill="#abd2d3"/>
    <path id="Path_74388" data-name="Path 74388" d="M286.951,223.272c1.422.1,3.236-.216,4.609-.032a.945.945,0,0,1,.813.813,38.2,38.2,0,0,1-.072,4.695,1.065,1.065,0,0,1-.741.51,38.2,38.2,0,0,1-4.695-.072,1.066,1.066,0,0,1-.51-.741,32.565,32.565,0,0,1,.009-4.507,1.2,1.2,0,0,1,.586-.665m3.414,1.976h-2v2h2Z" transform="translate(-250.399 -195.207)" fill="#abd2d3"/>
    <path id="Path_74389" data-name="Path 74389" d="M143.232,287.148c1.422.1,3.236-.216,4.609-.032a.944.944,0,0,1,.813.813,38.2,38.2,0,0,1-.072,4.695,1.066,1.066,0,0,1-.741.51,38.2,38.2,0,0,1-4.695-.072,1.066,1.066,0,0,1-.51-.741,32.544,32.544,0,0,1,.009-4.507,1.2,1.2,0,0,1,.586-.665m1.413,3.977h2v-2h-2Z" transform="translate(-124.694 -251.076)" fill="#abd2d3"/>
    <path id="Path_74390" data-name="Path 74390" d="M215.092,287.148c1.422.1,3.236-.216,4.609-.032a.945.945,0,0,1,.813.813,38.2,38.2,0,0,1-.072,4.695,1.066,1.066,0,0,1-.741.51,38.2,38.2,0,0,1-4.7-.072,1.066,1.066,0,0,1-.51-.741,32.549,32.549,0,0,1,.009-4.507,1.2,1.2,0,0,1,.586-.665m1.413,3.977h2v-2h-2Z" transform="translate(-187.547 -251.076)" fill="#abd2d3"/>
    <path id="Path_74391" data-name="Path 74391" d="M286.951,287.148c1.422.1,3.236-.216,4.609-.032a.945.945,0,0,1,.813.813,38.2,38.2,0,0,1-.072,4.695,1.065,1.065,0,0,1-.741.51,38.2,38.2,0,0,1-4.695-.072,1.066,1.066,0,0,1-.51-.741,32.565,32.565,0,0,1,.009-4.507,1.2,1.2,0,0,1,.586-.665m3.414,1.976h-2v2h2Z" transform="translate(-250.399 -251.076)" fill="#abd2d3"/>
    <rect id="Rectangle_14389" data-name="Rectangle 14389" width="2.002" height="2.002" transform="translate(39.967 46.054)" fill="#abd2d3"/>
    <rect id="Rectangle_14390" data-name="Rectangle 14390" width="2.002" height="2.002" transform="translate(39.967 50.057)" fill="#abd2d3"/>
    <rect id="Rectangle_14391" data-name="Rectangle 14391" width="2.002" height="2.002" transform="translate(39.967 54.06)" fill="#abd2d3"/>
    <path id="Path_74392" data-name="Path 74392" d="M31.168,176l6.914.039a1.064,1.064,0,0,1,.51.741,44.974,44.974,0,0,1,0,6.393.945.945,0,0,1-.813.813,44.937,44.937,0,0,1-6.393,0,.945.945,0,0,1-.813-.813,44.956,44.956,0,0,1,0-6.393,1.052,1.052,0,0,1,.6-.781m1.413,5.979h4v-4h-4Z" transform="translate(-26.641 -153.943)" fill="#abd2d3"/>
    <path id="Path_74393" data-name="Path 74393" d="M31.168,335.692l6.914.039a1.064,1.064,0,0,1,.51.741,44.974,44.974,0,0,1,0,6.393.945.945,0,0,1-.813.813,44.935,44.935,0,0,1-6.393,0,.945.945,0,0,1-.813-.813,44.956,44.956,0,0,1,0-6.393,1.052,1.052,0,0,1,.6-.781m1.413,5.979h4v-4h-4Z" transform="translate(-26.641 -293.615)" fill="#abd2d3"/>
    <path id="Path_74394" data-name="Path 74394" d="M31.168,255.848l6.914.039a1.064,1.064,0,0,1,.51.741,44.974,44.974,0,0,1,0,6.393.945.945,0,0,1-.813.813,44.935,44.935,0,0,1-6.393,0,.945.945,0,0,1-.813-.813,44.956,44.956,0,0,1,0-6.393,1.052,1.052,0,0,1,.6-.781m1.413,5.979h4v-4h-4Z" transform="translate(-26.641 -223.779)" fill="#abd2d3"/>
    <path id="Path_74395" data-name="Path 74395" d="M382.482,176l6.914.039a1.064,1.064,0,0,1,.51.741,44.937,44.937,0,0,1,0,6.393.945.945,0,0,1-.813.813,44.937,44.937,0,0,1-6.393,0,.945.945,0,0,1-.813-.813,44.955,44.955,0,0,1,0-6.393,1.052,1.052,0,0,1,.6-.781m5.416,1.976h-4v4h4Z" transform="translate(-333.921 -153.943)" fill="#abd2d3"/>
    <path id="Path_74396" data-name="Path 74396" d="M382.482,335.692l6.914.039a1.064,1.064,0,0,1,.51.741,44.936,44.936,0,0,1,0,6.393.945.945,0,0,1-.813.813,44.935,44.935,0,0,1-6.393,0,.945.945,0,0,1-.813-.813,44.955,44.955,0,0,1,0-6.393,1.052,1.052,0,0,1,.6-.781m5.416,1.976h-4v4h4Z" transform="translate(-333.921 -293.615)" fill="#abd2d3"/>
    <path id="Path_74397" data-name="Path 74397" d="M382.482,255.848l6.914.039a1.064,1.064,0,0,1,.51.741,44.936,44.936,0,0,1,0,6.393.945.945,0,0,1-.813.813,44.935,44.935,0,0,1-6.393,0,.945.945,0,0,1-.813-.813,44.955,44.955,0,0,1,0-6.393,1.052,1.052,0,0,1,.6-.781m5.416,1.976h-4v4h4Z" transform="translate(-333.921 -223.779)" fill="#abd2d3"/>
  </g>
</svg>
