<svg id="Group_50090" data-name="Group 50090" xmlns="http://www.w3.org/2000/svg" xmlns:xlink="http://www.w3.org/1999/xlink" width="60" height="67.307" viewBox="0 0 60 67.307">
  <defs>
    <clipPath id="clip-path">
      <rect id="Rectangle_14397" data-name="Rectangle 14397" width="60" height="67.307" fill="#abd2d3"/>
    </clipPath>
  </defs>
  <g id="Group_50089" data-name="Group 50089" clip-path="url(#clip-path)">
    <path id="Path_74424" data-name="Path 74424" d="M39.152,61.893c.89.191,1.046,1.979-.678,2.171l-28.061.017c-.295.1-.342,1.1-.464,1.435a2.5,2.5,0,0,1-2.13,1.668c-1.769.2-3.99.031-5.8.1A2.424,2.424,0,0,1,.032,64.413c2.463-5.4,5.2-10.7,7.825-16.039A12.782,12.782,0,0,1,6.525,43.79c.528-10.3-.683-21.263,0-31.48C7.219,1.932,20.064.322,28.294.033c8.162-.287,24.2,1.091,25.038,11.735l0,32.294a14.168,14.168,0,0,1-1.2,4.3l7.6,15.336a2.468,2.468,0,0,1-1.867,3.606c-1.782-.112-3.946.072-5.686-.123A2.516,2.516,0,0,1,50,65.418c-.737-2.1-.934-4.77-1.639-6.925H11.628l-.757,3.4ZM27.527,2.25c-6.57.322-18.341,1.578-18.833,10.059V43.925a8.942,8.942,0,0,0,7.685,7.914l26.846.021c5.044-.7,7.812-4.174,8.072-9.154.532-10.175-.272-20.96-.179-31.167a8.832,8.832,0,0,0-6.37-7.059A49.069,49.069,0,0,0,27.527,2.25M57.8,65.147l-7.121-14.92c-.173.586-1.665,1.344-1.667,1.8L52.119,65ZM7.874,65l3.1-12.97c0-.275-1.439-1.271-1.667-1.664L2.2,64.817l-.006.331Zm4.218-8.668H47.9l-.894-3.264a15.009,15.009,0,0,1-3.915.964c-8.6-.456-17.794.585-26.327,0a14.618,14.618,0,0,1-3.859-.956Z" transform="translate(0 0)" fill="#abd2d3"/>
    <path id="Path_74425" data-name="Path 74425" d="M95.863,80.14l25.606-.04a5.439,5.439,0,0,1,4.929,4.837,62.258,62.258,0,0,1,.022,8.669,5.464,5.464,0,0,1-4.821,5.08l-25.233.006A5.432,5.432,0,0,1,91.8,95.525c-.767-1.823-.675-7.756-.517-9.925.208-2.853,1.711-4.887,4.578-5.46M94.452,95.656a3.269,3.269,0,0,0,1.913.868c8.574-.122,17.209.218,25.747-.172a3.211,3.211,0,0,0,2.118-2.629,58.03,58.03,0,0,0,.02-8.4,3.2,3.2,0,0,0-2.785-3.047c-8.617.11-17.3-.22-25.877.167a3.275,3.275,0,0,0-2.132,2.887,57.139,57.139,0,0,0,0,8.136,3.847,3.847,0,0,0,1,2.191" transform="translate(-78.785 -69.214)" fill="#abd2d3"/>
    <path id="Path_74426" data-name="Path 74426" d="M102.231,269.137A4.827,4.827,0,1,1,97.4,264.31a4.827,4.827,0,0,1,4.827,4.827m-2.166.008a2.671,2.671,0,1,0-2.671,2.671,2.671,2.671,0,0,0,2.671-2.671" transform="translate(-79.996 -228.388)" fill="#abd2d3"/>
    <path id="Path_74427" data-name="Path 74427" d="M288.85,269.151a4.825,4.825,0,1,1-4.825-4.825,4.825,4.825,0,0,1,4.825,4.825m-2.167,0a2.672,2.672,0,1,0-2.672,2.672,2.672,2.672,0,0,0,2.672-2.672" transform="translate(-241.254 -228.402)" fill="#abd2d3"/>
    <path id="Path_74428" data-name="Path 74428" d="M178.251,40.294l10.137-.02c1.229.19,1.229,1.979-.4,2.162-2.9.326-6.387-.233-9.347-.012a1.111,1.111,0,0,1-.391-2.13" transform="translate(-153.449 -34.8)" fill="#abd2d3"/>
    <path id="Path_74429" data-name="Path 74429" d="M194.017,309.942a1.894,1.894,0,0,1-.841.313,54.24,54.24,0,0,1-7.873,0,1.086,1.086,0,0,1-.125-2.166c2.567.206,5.628-.3,8.134-.011a1.091,1.091,0,0,1,.705,1.864" transform="translate(-159.176 -266.127)" fill="#abd2d3"/>
    <path id="Path_74430" data-name="Path 74430" d="M185.2,270.98a47.826,47.826,0,0,1,7.68-.02c1.657.2,1.683,1.949.415,2.147-2.456.383-5.837-.262-8.393,0-1.121-.176-1.256-1.886.3-2.126" transform="translate(-159.029 -234.009)" fill="#abd2d3"/>
  </g>
</svg>
