<svg xmlns="http://www.w3.org/2000/svg" xmlns:xlink="http://www.w3.org/1999/xlink" width="60" height="60.024" viewBox="0 0 60 60.024">
  <defs>
    <clipPath id="clip-path">
      <rect id="Rectangle_14395" data-name="Rectangle 14395" width="60" height="60.024" fill="#abd2d3"/>
    </clipPath>
  </defs>
  <g id="Group_50086" data-name="Group 50086" transform="translate(0 -0.001)">
    <g id="Group_50085" data-name="Group 50085" transform="translate(0 0.001)" clip-path="url(#clip-path)">
      <path id="Path_74399" data-name="Path 74399" d="M359.7,255.151a40.8,40.8,0,0,1,5.839-.03,1.014,1.014,0,0,1,.565.138l6.875,6.832c.5,1.146-.491,1.963-1.524,1.29l-6.217-6.2c-1.274-.335-4.961.345-5.9-.309a1.01,1.01,0,0,1,.362-1.718" transform="translate(-316.854 -225.094)" fill="#abd2d3"/>
      <path id="Path_74400" data-name="Path 74400" d="M359.7,303.057a40.793,40.793,0,0,1,5.839-.03,1.015,1.015,0,0,1,.565.138L372.979,310c.5,1.146-.491,1.963-1.524,1.29l-6.217-6.2c-1.274-.335-4.961.345-5.9-.309a1.01,1.01,0,0,1,.362-1.718" transform="translate(-316.854 -267.377)" fill="#abd2d3"/>
      <path id="Path_74401" data-name="Path 74401" d="M359.7,350.964a40.793,40.793,0,0,1,5.839-.03,1.014,1.014,0,0,1,.565.138l6.875,6.832c.5,1.146-.491,1.963-1.524,1.29l-6.217-6.2c-1.274-.335-4.961.345-5.9-.309a1.01,1.01,0,0,1,.362-1.718" transform="translate(-316.854 -309.66)" fill="#abd2d3"/>
      <path id="Path_74402" data-name="Path 74402" d="M359.7,398.87a40.8,40.8,0,0,1,5.839-.03,1.015,1.015,0,0,1,.565.138l6.875,6.832c.5,1.146-.491,1.963-1.524,1.29l-6.217-6.2c-1.274-.335-4.961.345-5.9-.309a1.01,1.01,0,0,1,.362-1.718" transform="translate(-316.854 -351.943)" fill="#abd2d3"/>
      <path id="Path_74403" data-name="Path 74403" d="M0,31.438a2.89,2.89,0,0,1,1.289-.644c2.888-.962,6.079-1.535,9.009-2.413L10.3,6.419c-.095-.188.485-.755.533-.755h2.285V.567c0-.284.985-.744,1.318-.5l22.2,5.563c.852.2,2.345-.173,3.109.054a2.447,2.447,0,0,1,.551.5V23.472H49.03l.472.349L59.961,34.333c0,8.433.123,16.9-.063,25.313l-.382.379H0ZM15,2.266v3.4H28.469ZM38.428,7.655H12.184V58.15h7.5V49.832H17.749a2.845,2.845,0,0,1-.7-.354,1.017,1.017,0,0,1,.59-1.631l15.112-.012a1,1,0,0,1,.862,1.576,1.956,1.956,0,0,1-.75.422H30.929V58.15h7.5V51.179c0-.224.715-.547.993-.535.239.01.881.358.881.535V58.15H58.11v-22.9l-9.783-9.783H40.3V42.627c0,.741-1.874.741-1.874,0ZM10.31,36.593V30.384l-8.435,2.4V58.15H10.31V52.644H5.565a4.532,4.532,0,0,1-.641-.3c-.517-.451-.175-1.7.407-1.7H10.31V47.958H5.565a4.532,4.532,0,0,1-.641-.3c-.517-.451-.175-1.7.407-1.7H10.31V43.271H5.565a4.531,4.531,0,0,1-.641-.3c-.517-.451-.175-1.7.407-1.7H10.31V38.585H5.565a4.532,4.532,0,0,1-.641-.3c-.517-.451-.175-1.7.407-1.7ZM29.055,49.832h-7.5V58.15h7.5Z" transform="translate(0 0)" fill="#abd2d3"/>
      <path id="Path_74404" data-name="Path 74404" d="M119.71,96.359,129,96.4a1.913,1.913,0,0,1,.41.41,32.329,32.329,0,0,1,.067,4.279c-.073.8-.472.929-1.231,1a58.9,58.9,0,0,1-7.859,0c-.645-.057-1.144-.177-1.228-.881a27.658,27.658,0,0,1,0-4.109.985.985,0,0,1,.558-.731m7.884,1.968h-6.561v1.757h6.561Z" transform="translate(-105.1 -85.048)" fill="#abd2d3"/>
      <path id="Path_74405" data-name="Path 74405" d="M223.507,96.359l9.287.037a1.913,1.913,0,0,1,.41.41,32.329,32.329,0,0,1,.067,4.279c-.073.8-.472.929-1.231,1a58.9,58.9,0,0,1-7.859,0c-.645-.057-1.144-.177-1.228-.881a27.66,27.66,0,0,1,0-4.109.985.985,0,0,1,.558-.731m7.884,1.968H224.83v1.757h6.561Z" transform="translate(-196.713 -85.048)" fill="#abd2d3"/>
      <path id="Path_74406" data-name="Path 74406" d="M119.71,167.994l8.768-.03a.921.921,0,0,1,1,.761,27.4,27.4,0,0,1,0,3.995c-.073.8-.472.929-1.231,1a58.943,58.943,0,0,1-7.859,0c-.645-.057-1.144-.177-1.228-.881a27.656,27.656,0,0,1,0-4.109.986.986,0,0,1,.558-.731m7.884,1.968h-6.561v1.757h6.561Z" transform="translate(-105.1 -148.247)" fill="#abd2d3"/>
      <path id="Path_74407" data-name="Path 74407" d="M223.507,167.994l8.768-.03a.921.921,0,0,1,1,.761,27.414,27.414,0,0,1,0,3.995c-.073.8-.472.929-1.231,1a58.943,58.943,0,0,1-7.859,0c-.645-.057-1.144-.177-1.228-.881a27.658,27.658,0,0,1,0-4.109.986.986,0,0,1,.558-.731m7.884,1.968H224.83v1.757h6.561Z" transform="translate(-196.713 -148.247)" fill="#abd2d3"/>
      <path id="Path_74408" data-name="Path 74408" d="M119.828,239.246c2.775.149,5.919-.282,8.651-.03.5.046.924.214,1,.761a27.4,27.4,0,0,1,0,3.995c-.073.8-.472.929-1.231,1a58.9,58.9,0,0,1-7.859,0c-.645-.057-1.144-.177-1.228-.881a27.621,27.621,0,0,1,0-4.109.877.877,0,0,1,.675-.731m1.206,3.724h6.561v-1.757h-6.561Z" transform="translate(-105.1 -211.064)" fill="#abd2d3"/>
      <path id="Path_74409" data-name="Path 74409" d="M223.626,239.246c2.775.149,5.919-.282,8.651-.03.5.046.924.214,1,.761a27.414,27.414,0,0,1,0,3.995c-.073.8-.472.929-1.231,1a58.9,58.9,0,0,1-7.859,0c-.645-.057-1.144-.177-1.228-.881a27.622,27.622,0,0,1,0-4.109.877.877,0,0,1,.675-.731m1.206,3.724h6.561v-1.757h-6.561Z" transform="translate(-196.714 -211.064)" fill="#abd2d3"/>
      <path id="Path_74410" data-name="Path 74410" d="M119.828,311.106c2.775.149,5.919-.282,8.651-.03.5.046.924.214,1,.761a27.4,27.4,0,0,1,0,3.995c-.073.8-.472.929-1.231,1a58.9,58.9,0,0,1-7.859,0c-.645-.057-1.144-.177-1.228-.881a27.622,27.622,0,0,1,0-4.109.877.877,0,0,1,.675-.731m1.206,3.724h6.561v-1.757h-6.561Z" transform="translate(-105.1 -274.489)" fill="#abd2d3"/>
      <path id="Path_74411" data-name="Path 74411" d="M223.626,311.106c2.775.149,5.919-.282,8.651-.03.5.046.924.214,1,.761a27.415,27.415,0,0,1,0,3.995c-.073.8-.472.929-1.231,1a58.9,58.9,0,0,1-7.859,0c-.645-.057-1.144-.177-1.228-.881a27.623,27.623,0,0,1,0-4.109.877.877,0,0,1,.675-.731m1.206,3.724h6.561v-1.757h-6.561Z" transform="translate(-196.714 -274.489)" fill="#abd2d3"/>
      <path id="Path_74412" data-name="Path 74412" d="M327.737,383.615a1.085,1.085,0,0,1,1.144.448,12.328,12.328,0,0,1,.009,2.817.972.972,0,0,1-1.825-.3,14.742,14.742,0,0,1,.027-2.438,1.1,1.1,0,0,1,.646-.529" transform="translate(-288.639 -338.564)" fill="#abd2d3"/>
    </g>
  </g>
</svg>
