<svg id="Group_50088" data-name="Group 50088" xmlns="http://www.w3.org/2000/svg" xmlns:xlink="http://www.w3.org/1999/xlink" width="60" height="54.006" viewBox="0 0 60 54.006">
  <defs>
    <clipPath id="clip-path">
      <rect id="Rectangle_14396" data-name="Rectangle 14396" width="60" height="54.006" fill="#abd2d3"/>
    </clipPath>
  </defs>
  <g id="Group_50087" data-name="Group 50087" clip-path="url(#clip-path)">
    <path id="Path_74413" data-name="Path 74413" d="M266.743,367.264c1.273-.374,1.085,2.415.961,3.116a.76.76,0,0,1-1.518.021c-.1-.642-.189-2.918.557-3.138" transform="translate(-234.268 -323.278)" fill="#abd2d3"/>
    <path id="Path_74414" data-name="Path 74414" d="M13.337,6.7c-.028-.005-.487-.248-.507-.269-.376-.389-.029-4.9-.147-5.76.1-.511.787-.689,1.246-.665L46.516.035c.429.1.749.265.811.742a34.9,34.9,0,0,1-.017,5.255c-.043.3-.371.664-.646.664H43.856v8H59.445c.27,0,.626.6.543.89l-.059,37.818c-.152.492-.737.608-1.2.6H1.267c-.692.028-1.284-.253-1.255-1.015V15.59c-.083-.292.273-.89.543-.89H16.144v-8c-.846-.1-2.005.141-2.807,0m.777-1.553H45.887V1.56H14.113ZM23.55,6.7H17.577V12.43H23.55Zm11.467,0H24.983V12.43H35.017ZM36.45,12.43h5.973V6.7H36.45Zm-12.9,1.553H17.577v5.734H23.55Zm11.467,0H24.983v5.734H35.017Zm1.433,5.734h5.973V13.983H36.45Zm-35,32.73H16.144V16.133H1.451Zm57.1-36.313H43.856V52.446H58.549ZM17.577,27H23.55V21.15H17.577Zm17.44-5.853H24.983V27H35.017ZM36.45,27h5.973V21.15H36.45ZM17.577,34.29H23.55V28.437H17.577Zm17.44-5.853H24.983V34.29H35.017ZM36.45,34.29h5.973V28.437H36.45ZM17.577,37.873H42.423v-2.15H17.577Zm0,14.573h1.911V39.307H17.577Zm6.092-13.14H20.922v13.14h2.747Zm5.614,0H25.1v13.14h4.181Zm5.614,0H30.717v13.14H34.9Zm1.433,13.14h2.747V39.307H36.331Zm4.181,0h1.911V39.307H40.512Z" transform="translate(0 0)" fill="#abd2d3"/>
    <path id="Path_74415" data-name="Path 74415" d="M221.885,367.308a.834.834,0,0,1,.983.762,13.526,13.526,0,0,1,0,2.375c-.153.934-1.379,1.007-1.535-.123-.09-.655-.2-2.792.553-3.014" transform="translate(-194.786 -323.322)" fill="#abd2d3"/>
    <path id="Path_74416" data-name="Path 74416" d="M27.215,300.686l10.074.028c.238.1.418.219.47.486a30.857,30.857,0,0,1-.021,3.677.853.853,0,0,1-.751.444l-9.864-.055a.7.7,0,0,1-.463-.612,19.664,19.664,0,0,1-.013-3.1c.039-.431.092-.741.569-.865m9.112,1.408H28.086v1.672h8.242Z" transform="translate(-23.409 -264.699)" fill="#abd2d3"/>
    <path id="Path_74417" data-name="Path 74417" d="M27.4,167.945l10.074.028c.238.1.418.219.47.486a30.861,30.861,0,0,1-.021,3.677.853.853,0,0,1-.751.444c-3.019-.2-6.343.253-9.324,0-.29-.024-.706-.056-.882-.313a16.987,16.987,0,0,1-.131-3.576c.045-.388.163-.648.565-.749m9.112,1.408H28.27v1.672h8.242Z" transform="translate(-23.593 -147.845)" fill="#abd2d3"/>
    <path id="Path_74418" data-name="Path 74418" d="M37.734,238.944c-.378.382-9.282.034-10.518.122a.748.748,0,0,1-.44-.515A27.35,27.35,0,0,1,26.8,235a.712.712,0,0,1,.626-.45l10.106.06a.608.608,0,0,1,.294.184,16.909,16.909,0,0,1-.089,4.154m-1.286-2.958H28.206v1.672h8.242Z" transform="translate(-23.53 -206.474)" fill="#abd2d3"/>
    <path id="Path_74419" data-name="Path 74419" d="M37.734,367.23a16.312,16.312,0,0,1,.153,3.62c-.056.665-.111.72-.776.776-3.1.26-6.549-.209-9.687,0a.712.712,0,0,1-.626-.45,27.35,27.35,0,0,1-.022-3.555.748.748,0,0,1,.44-.515c1.236.089,10.14-.259,10.518.122m-1.286,1.286H28.206v1.672h8.242Z" transform="translate(-23.53 -323.117)" fill="#abd2d3"/>
    <path id="Path_74420" data-name="Path 74420" d="M381.5,300.686l10.075.027a.7.7,0,0,1,.463.612,21.351,21.351,0,0,1-.045,3.523.733.733,0,0,1-.722.473l-9.863-.056c-.238-.1-.418-.219-.47-.486a24.256,24.256,0,0,1-.008-3.467c.051-.381.208-.508.569-.625m.87,3.08h8.242v-1.672h-8.242Z" transform="translate(-335.288 -264.699)" fill="#abd2d3"/>
    <path id="Path_74421" data-name="Path 74421" d="M381.5,167.945l10.075.027a.7.7,0,0,1,.463.612,21.578,21.578,0,0,1-.045,3.523c-.136.413-.584.444-.958.475l-9.626-.059c-.238-.1-.418-.219-.47-.486a24.256,24.256,0,0,1-.008-3.467c.051-.381.208-.508.569-.625m9.112,1.408h-8.242v1.672h8.242Z" transform="translate(-335.288 -147.845)" fill="#abd2d3"/>
    <path id="Path_74422" data-name="Path 74422" d="M381.346,238.944a1.114,1.114,0,0,1-.153-.624,28.733,28.733,0,0,1,.063-3.53.608.608,0,0,1,.294-.184l10.106-.06a.712.712,0,0,1,.626.45,27.353,27.353,0,0,1,.022,3.555.748.748,0,0,1-.44.515c-1.236-.089-10.14.259-10.518-.122m1.286-1.286h8.242v-1.672h-8.242Z" transform="translate(-335.55 -206.474)" fill="#abd2d3"/>
    <path id="Path_74423" data-name="Path 74423" d="M381.318,371.1a16.312,16.312,0,0,1-.153-3.62c.056-.665.111-.72.776-.776,3.1-.26,6.549.209,9.687,0a.712.712,0,0,1,.626.45,27.352,27.352,0,0,1,.022,3.555.748.748,0,0,1-.44.515c-1.236-.089-10.14.259-10.518-.122m1.286-1.286h8.242v-1.672H382.6Z" transform="translate(-335.522 -322.747)" fill="#abd2d3"/>
  </g>
</svg>
